<?xml version="1.0" standalone="no"?>
<!DOCTYPE svg PUBLIC "-//W3C//DTD SVG 20010904//EN"
 "http://www.w3.org/TR/2001/REC-SVG-20010904/DTD/svg10.dtd">
<svg version="1.0" xmlns="http://www.w3.org/2000/svg"
 width="700.000000pt" height="700.000000pt" viewBox="0 0 700.000000 700.000000"
 preserveAspectRatio="xMidYMid meet">
<metadata>
Created by potrace 1.14, written by Peter Selinger 2001-2017
</metadata>
<g transform="translate(0.000000,700.000000) scale(0.100000,-0.100000)"
fill="#000000" stroke="none">
<path d="M1659 5750 c-178 -60 -358 -119 -399 -131 -82 -22 -164 -60 -196 -90
-12 -11 -34 -53 -49 -94 -28 -79 -50 -104 -111 -134 -32 -16 -54 -19 -128 -15
-77 4 -93 8 -119 30 -29 24 -36 26 -101 19 -52 -4 -83 -2 -113 9 -23 8 -56 13
-74 11 -77 -10 -143 -105 -144 -206 0 -56 1 -58 58 -117 31 -33 57 -66 57 -72
0 -7 -14 -31 -31 -55 -35 -49 -34 -81 3 -69 12 3 44 21 72 39 195 124 260 123
454 -10 165 -112 179 -117 302 -121 58 -1 179 -5 270 -9 l165 -6 80 -40 c44
-22 100 -51 125 -65 72 -38 114 -33 205 27 47 31 92 53 117 56 35 5 42 2 72
-31 39 -42 59 -45 74 -12 6 14 31 39 56 58 50 37 67 81 47 124 -12 26 -91 81
-131 91 -34 8 -79 40 -119 86 -62 70 -123 82 -188 39 -24 -15 -25 -19 -18 -78
5 -48 3 -70 -10 -93 -8 -17 -17 -31 -20 -31 -31 0 -217 84 -236 106 -27 33 10
86 101 147 73 49 82 57 103 90 26 40 64 36 129 -15 29 -23 55 -44 58 -48 36
-45 109 -52 139 -14 52 66 12 119 -142 193 -172 82 -186 108 -115 217 64 98
63 97 141 135 79 37 97 56 104 107 5 34 2 42 -22 60 -55 44 -107 34 -466 -88z"/>
<path d="M2729 5785 c-2 -2 -58 -6 -123 -10 -188 -10 -290 -35 -424 -106 -86
-46 -125 -90 -125 -140 0 -46 23 -64 90 -68 17 -1 193 -175 194 -192 1 -8 2
-61 3 -119 1 -89 5 -112 24 -147 12 -24 34 -50 48 -59 37 -25 66 -6 119 75 54
84 102 125 175 151 108 40 115 48 126 136 3 32 22 93 41 136 32 75 33 79 17
103 -21 33 -10 61 45 112 22 20 38 40 35 45 -3 4 -26 8 -52 8 -34 0 -58 7 -85
26 -41 27 -102 56 -108 49z"/>
<path d="M4975 5590 c-11 -18 25 -83 65 -117 22 -19 40 -41 40 -48 0 -17 -69
-42 -132 -49 -58 -6 -91 -23 -159 -82 -59 -50 -92 -68 -156 -84 -23 -6 -49
-20 -57 -32 -17 -24 -23 -16 -28 37 -2 24 -7 29 -23 27 -20 -3 -40 -22 -85
-81 -21 -27 -34 -34 -70 -38 -25 -2 -56 -12 -70 -22 -31 -22 -90 -53 -90 -47
0 2 -21 -1 -47 -8 -38 -10 -58 -10 -95 0 -41 10 -50 10 -66 -5 -11 -9 -22 -26
-26 -38 -4 -12 -20 -35 -35 -52 -31 -33 -57 -33 -86 -1 -20 22 -13 37 21 50
61 24 27 80 -53 87 -40 4 -51 1 -67 -16 -19 -20 -19 -26 -7 -79 26 -108 25
-136 -4 -201 -18 -39 -25 -69 -21 -85 12 -50 84 -161 117 -183 19 -13 47 -35
62 -49 28 -26 29 -30 22 -90 -6 -62 -6 -62 27 -87 55 -42 81 -44 112 -7 14 17
27 38 27 46 1 8 2 20 3 27 1 6 -2 27 -7 45 -7 27 -5 38 10 54 15 17 25 19 63
13 25 -3 61 -9 80 -12 53 -7 86 11 122 67 25 38 41 52 68 58 49 12 241 8 266
-6 11 -6 39 -31 62 -56 66 -72 102 -82 157 -46 39 26 72 26 80 0 7 -24 30 -26
39 -5 9 25 67 18 116 -15 82 -55 198 -37 286 43 71 65 111 64 187 -3 41 -36
63 -88 59 -143 -4 -48 20 -87 52 -87 26 0 68 56 107 144 25 58 21 119 -12 173
-39 62 -3 91 171 143 41 12 102 39 135 61 33 21 69 39 80 40 43 4 55 -1 55
-23 0 -23 -9 -40 -66 -119 -31 -44 -52 -93 -48 -116 1 -7 2 -17 3 -23 2 -16
64 -11 87 8 28 22 41 48 54 108 18 78 30 90 107 104 91 17 114 30 148 84 34
54 50 61 130 57 99 -4 124 37 52 86 -17 13 -42 30 -54 38 -11 9 -63 27 -115
40 -75 19 -118 24 -211 23 l-117 -2 -114 57 c-163 82 -250 92 -357 42 -30 -14
-62 -25 -73 -25 -10 0 -46 19 -80 42 l-61 42 -115 -1 c-63 -1 -118 1 -122 3
-4 3 -1 21 7 41 8 19 15 42 15 49 0 19 -40 43 -83 48 -59 8 -75 22 -93 82 -20
69 -39 89 -105 108 -61 19 -76 20 -84 6z"/>
<path d="M3518 5255 c-92 -35 -150 -76 -237 -168 -111 -117 -188 -253 -177
-312 8 -42 32 -56 83 -50 45 6 53 2 75 -48 19 -39 56 -64 82 -54 27 11 47 54
66 147 23 117 53 144 64 57 7 -56 13 -60 68 -55 37 4 57 12 76 32 26 26 27 30
28 156 1 122 2 131 27 169 32 48 34 80 9 111 -23 29 -108 36 -164 15z"/>
<path d="M2863 5024 c-12 -20 -17 -48 -17 -109 -1 -89 -12 -115 -51 -115 -58
0 -90 -80 -58 -142 16 -33 33 -34 90 -8 46 20 56 16 53 -28 -1 -15 -2 -33 -1
-39 1 -15 37 -17 46 -3 4 6 31 10 61 9 40 -2 59 3 74 16 11 10 17 22 14 26 -3
5 -5 32 -6 60 0 49 -3 55 -54 105 -30 30 -54 57 -54 61 0 5 7 26 15 48 19 54
18 65 -5 65 -14 0 -22 11 -30 40 -9 33 -15 40 -35 40 -15 0 -31 -10 -42 -26z"/>
<path d="M916 4683 c-1 -1 -27 -3 -58 -4 -77 -3 -111 -19 -131 -62 -33 -68
-37 -122 -23 -275 7 -75 11 -85 42 -116 49 -49 139 -107 193 -123 28 -8 79
-13 133 -11 l87 3 27 -32 c15 -18 36 -33 47 -33 11 0 37 -17 57 -39 61 -64 73
-67 117 -28 38 34 67 44 165 53 28 3 64 12 81 20 26 14 31 14 47 -1 11 -10 26
-39 35 -66 9 -27 26 -56 38 -64 20 -14 23 -14 31 5 5 11 5 47 0 87 -12 90 -7
113 41 173 32 40 41 61 45 103 4 47 7 52 27 50 16 -2 27 6 38 26 8 16 36 54
62 85 60 69 101 159 83 181 -18 22 -22 20 -87 -33 -85 -70 -150 -110 -209
-129 -61 -19 -84 -13 -85 22 -1 14 -3 30 -4 35 -1 6 -3 14 -4 20 0 5 -21 21
-45 35 -24 14 -50 33 -57 41 -22 27 -115 64 -175 70 -54 5 -513 11 -518 7z"/>
<path d="M3282 4548 c-7 -7 -12 -21 -12 -32 0 -42 -38 -68 -81 -56 l-28 8 4
-49 c3 -44 1 -53 -27 -85 -27 -30 -32 -44 -32 -87 1 -40 5 -54 24 -69 13 -10
29 -17 35 -14 33 12 45 -26 31 -95 l-8 -37 61 3 c37 1 71 -3 87 -11 37 -20 63
-16 114 15 56 34 63 66 26 122 -41 61 -34 88 26 113 45 19 51 38 43 129 -14
146 -15 147 -124 117 -40 -10 -46 -9 -80 14 -43 30 -43 30 -59 14z"/>
<path d="M4406 4519 c-14 -11 -26 -27 -26 -35 0 -24 -56 -74 -82 -74 -13 0
-31 7 -41 14 -34 26 -120 -15 -142 -68 -18 -42 -3 -79 37 -92 26 -8 33 -17 48
-67 19 -62 37 -90 51 -81 5 3 9 14 9 24 0 29 42 73 62 65 9 -4 28 -37 43 -73
56 -141 99 -174 147 -112 13 16 50 41 83 55 77 34 92 48 121 114 14 30 33 61
44 68 28 19 52 70 45 92 -6 20 -38 35 -95 47 -49 9 -88 31 -140 77 -44 39 -96
67 -123 67 -8 0 -26 -9 -41 -21z"/>
<path d="M5919 4493 c-18 -4 -18 -22 -4 -174 10 -107 -23 -189 -95 -236 -86
-55 -123 -87 -137 -121 -14 -34 -14 -37 6 -54 25 -20 42 -16 91 23 19 15 54
32 76 38 61 16 77 40 75 106 -2 57 2 64 63 113 25 20 19 37 -19 51 -42 15 -44
32 -8 84 30 44 34 88 9 134 -16 33 -31 42 -57 36z"/>
<path d="M2848 4444 c-22 -37 -51 -54 -93 -54 -40 0 -75 -21 -75 -45 0 -12 17
-48 37 -81 29 -47 37 -70 39 -114 1 -30 2 -61 3 -68 1 -17 99 -62 120 -55 9 3
23 15 32 26 16 20 41 24 119 18 60 -5 69 -2 76 24 5 22 -22 77 -47 95 -4 3
-12 18 -18 33 -9 24 -7 31 17 55 49 49 54 59 42 81 -7 14 -21 21 -40 21 -21 0
-38 10 -57 31 -29 33 -91 69 -118 69 -9 0 -25 -16 -37 -36z"/>
<path d="M5458 4467 c-35 -34 -86 -66 -113 -70 -16 -3 -44 -10 -61 -15 -44
-14 -108 -8 -192 18 -47 14 -84 20 -106 16 -50 -10 -134 -87 -166 -154 -15
-31 -53 -84 -85 -117 -88 -93 -95 -132 -26 -155 44 -14 51 -25 82 -130 33
-110 64 -141 122 -117 18 8 46 26 62 41 44 41 66 32 95 -40 14 -34 31 -69 38
-77 21 -25 134 -37 213 -24 106 18 120 45 116 225 -2 152 -5 147 118 233 84
59 106 87 113 144 5 50 2 56 -93 161 -66 73 -91 86 -117 61z"/>
<path d="M3683 4213 c-18 -10 -53 -33 -78 -50 -37 -27 -45 -38 -45 -63 0 -50
-16 -67 -90 -95 -38 -15 -70 -29 -70 -32 0 -14 75 -95 94 -103 13 -5 34 -2 56
7 25 10 54 12 105 7 134 -13 144 -9 198 74 57 88 61 100 42 128 -15 23 -161
144 -174 144 -3 0 -21 -8 -38 -17z"/>
<path d="M2520 4032 c-98 -5 -109 -18 -77 -90 16 -37 17 -51 8 -93 -24 -112
-12 -130 90 -136 109 -6 126 1 184 82 31 44 83 95 96 95 14 0 49 43 49 61 0
23 -42 52 -106 73 -48 16 -93 17 -244 8z"/>
<path d="M890 4023 c0 -4 19 -40 42 -80 47 -83 74 -97 63 -33 -4 25 -3 40 3
40 18 0 67 -68 85 -117 29 -82 54 -105 125 -114 34 -5 90 -18 124 -29 53 -17
72 -31 120 -83 65 -70 72 -69 83 20 8 66 -4 85 -52 81 -45 -4 -54 13 -37 70
24 77 -5 87 -78 26 -48 -39 -78 -14 -93 76 -9 51 -39 76 -124 104 -123 40
-261 60 -261 39z"/>
<path d="M3079 3994 c0 -11 -2 -29 -3 -42 -2 -15 6 -30 22 -42 22 -18 36 -22
112 -34 69 -11 157 59 117 93 -22 17 -112 38 -132 31 -20 -7 -24 -7 -82 5 -28
6 -33 5 -34 -11z"/>
<path d="M4665 3865 c-17 -7 -38 -21 -47 -31 -28 -32 -68 -121 -80 -178 l-12
-55 41 -44 c54 -58 61 -73 67 -140 11 -108 39 -187 66 -187 16 0 37 42 71 143
34 103 62 142 108 152 45 10 73 42 69 78 -3 29 -11 36 -83 73 -82 42 -105 67
-105 114 0 56 -49 95 -95 75z"/>
<path d="M3295 3643 c-69 -12 -131 -26 -140 -33 -5 -4 -27 -13 -48 -19 -20 -7
-42 -21 -47 -32 -6 -10 -8 -19 -5 -19 7 0 -31 -56 -55 -81 -86 -90 -143 -171
-164 -232 -22 -67 -20 -87 14 -134 19 -26 31 -57 35 -89 12 -104 57 -126 241
-119 185 8 231 -10 279 -109 26 -54 33 -122 20 -216 -10 -70 -5 -192 10 -265
14 -69 26 -103 60 -180 8 -16 16 -50 18 -74 5 -49 21 -66 74 -80 43 -12 99 3
118 33 9 13 25 56 36 97 14 50 31 84 53 110 22 24 38 54 45 88 6 30 28 77 53
113 l43 63 3 104 c2 91 6 111 27 148 22 37 138 190 155 203 22 18 60 81 60
100 0 28 -26 49 -63 50 -93 1 -180 108 -225 279 -15 53 -27 76 -51 96 -17 15
-31 35 -31 45 0 14 -13 20 -67 28 -38 5 -95 7 -128 4 -33 -2 -80 -4 -105 -4
-46 1 -59 11 -110 81 -18 24 -76 49 -105 44z"/>
<path d="M1595 3472 c-69 -12 -101 -51 -108 -134 -2 -28 -19 -78 -40 -120 -34
-67 -42 -100 -38 -152 0 -10 36 -53 79 -96 52 -51 88 -97 109 -140 29 -59 32
-72 31 -154 -1 -49 -9 -128 -19 -175 -44 -217 -52 -281 -46 -386 6 -134 31
-192 90 -214 62 -24 80 14 33 70 -30 36 -26 72 16 149 16 30 31 72 33 93 5 49
22 68 102 113 46 25 68 45 83 73 10 21 30 52 44 69 14 16 43 67 65 113 40 89
57 108 107 128 38 15 67 64 89 150 9 35 36 98 61 140 24 42 44 85 44 97 0 21
-28 54 -47 54 -6 0 -40 9 -76 20 -76 23 -157 82 -216 157 -28 36 -50 53 -73
58 -18 4 -53 20 -78 36 -25 16 -61 31 -80 34 -125 18 -147 20 -165 17z"/>
<path d="M6172 2541 c-7 -4 -16 -28 -21 -54 -4 -26 -14 -54 -21 -62 -12 -14
-15 -14 -31 1 -10 9 -22 33 -25 53 -13 70 -42 75 -118 23 -21 -14 -49 -28 -62
-29 -67 -9 -130 -57 -121 -92 6 -25 -4 -33 -77 -60 -100 -37 -116 -78 -66
-172 11 -22 20 -59 20 -82 0 -80 32 -85 161 -27 49 22 100 40 114 40 43 0 87
-25 160 -90 39 -34 83 -69 100 -77 57 -30 159 -21 168 15 3 10 5 37 6 62 1 28
15 71 36 113 18 38 32 76 30 85 -2 9 -4 22 -4 29 -1 7 -31 47 -67 88 -45 52
-78 102 -100 153 -32 74 -57 99 -82 83z"/>
</g>
</svg>
