<?xml version="1.0" encoding="utf-8"?>
<svg viewBox="0 0 800 800" xmlns="http://www.w3.org/2000/svg" xmlns:xlink="http://www.w3.org/1999/xlink">
  <g id="g-1" transform="matrix(0.959508, 0, 0, 0.959508, 14.332347, 95.61129)">
    <a id="a-1" transform="matrix(1, 0, 0, 1, -6.419458, 1.97111)" xlink:href="/de">
      <g id="g-2" style="color:blue;">
        <path id="path-1" d="M 367.255 201.071 C 369.142 204.048 369.64 210.625 367.566 213.616 C 365.957 215.935 363.592 217.226 362.309 219.91 C 361.124 222.389 361.078 225.506 361.206 228.184 C 361.341 230.998 362.861 235.084 365.988 235.829 C 367.797 236.26 371.545 235.769 372.655 237.502 C 374.294 240.061 372.862 244.404 372.171 247.004 C 371.869 248.138 371.132 250.223 371.833 251.314 C 372.495 252.344 373.694 252.019 374.698 251.846 C 376.858 251.475 379.281 251.059 381.478 251.233 C 383.344 251.381 385.574 251.453 387.315 252.119 C 389.891 253.104 391.467 254.685 394.441 254.719 C 397.179 254.75 398.84 252.6 400.972 251.397 C 402.763 250.387 404.993 249.858 406.648 248.627 C 411.768 244.82 406.493 237.976 403.871 233.953 C 402.78 232.28 401.553 230.266 402.216 228.198 C 403.056 225.579 405.982 223.414 408.55 222.481 C 409.828 222.018 411.823 222.035 412.72 220.927 C 415.312 217.727 414.608 215.535 414.199 211.83 C 413.788 208.111 413.104 204.359 412.783 200.643 C 412.593 198.448 412.959 194.648 411.024 193.06 C 406.174 189.081 399.025 195.214 393.76 194.738 C 390.51 194.444 389.343 191.59 386.956 189.963 C 386.016 189.322 384.183 188.697 383.101 189.36 C 380.008 191.255 382.202 196.869 379.601 199.296 C 377.799 200.977 374.24 201.543 371.874 201.103 C 370.639 200.874 368.949 199.961 367.683 200.408" style="fill: rgb(207, 207, 207);"/>
      </g>
    </a>
    <a id="a-2" transform="matrix(1, 0, 0, 1, -4.365904, -1.871102)" xlink:href="/au">
      <g id="g-2">
        <path id="path-2" d="M 394.843 262.218 L 397.627 260.614 C 401.197 259.311 402.426 259.405 408.558 256.74 C 418.279 252.515 409.062 244.832 418.551 240.168 C 421.44 238.748 429.365 232.504 432.539 232.302 C 435.248 232.13 442.293 240.367 444.802 241.199 C 447.782 242.186 454.026 248.158 454.75 251.662 C 455.524 255.409 450.752 260.161 448.977 263.34 C 443.602 272.969 442.529 275.249 430.732 273.876 C 423.543 273.038 425.785 273.483 418.727 272.783 C 412.313 272.147 407.489 279.476 402.3 272.86 C 399.888 269.785 395.557 265.654 394.889 264.381" style="fill: rgb(207, 207, 207);"/>
      </g>
    </a>
    <a id="a-3" xlink:href="/us">
      <g id="g-2">
        <path id="path-3" d="M 68.044 197.189 C 67.318 203.696 68.256 213.793 69.404 220.215 C 69.748 222.139 69.321 224.225 70.13 226.039 C 71.839 229.869 75.623 232.702 78.78 235.093 C 85.011 239.813 91.777 244.82 99.532 246.27 C 104.418 247.184 109.282 246.938 114.201 246.491 C 116.813 246.254 120.39 245.461 122.842 246.815 C 125.69 248.387 127.182 252.042 129.999 253.754 C 132.247 255.12 135.22 254.361 137.121 256.297 C 140.62 259.861 142.916 265.563 148.621 265.649 C 151.105 265.686 153.588 259.83 156.302 258.7 C 163.462 255.719 170.814 256.355 178.252 254.996 C 180.682 254.552 182.399 252.173 184.859 252.123 C 189.671 252.026 191.55 262.304 193.543 266.052 C 194.473 267.8 196.464 270.836 198.821 270.029 C 200.841 269.337 200.977 266.434 200.977 264.658 C 200.977 259.311 198.48 254.416 198.902 248.964 C 199.586 240.119 206.3 237.65 209.747 230.674 C 211.421 227.286 208.862 223.804 210.236 220.555 C 210.672 219.526 211.902 217.621 213.144 218.084 C 214.15 218.458 215.123 220.793 216.247 219.365 C 218.168 216.923 218.825 213.639 220.653 211.121 C 222.808 208.153 225.917 206.472 228.165 203.621 C 230.401 200.785 231.069 197.677 232.618 194.499 C 233.738 192.2 237.825 187.657 235.896 184.893 C 232.381 179.856 228.404 185.819 225.665 188.03 C 217.561 194.572 207.532 202.21 197.369 204.625 C 196.347 204.868 195.322 205.055 194.293 205.251 C 187.151 206.614 191.295 197.38 188.545 194.205 C 185.883 191.132 182.376 190.059 179.226 187.906 C 177.643 186.825 176.852 185.017 175.302 183.862 C 171.123 182.506 167.839 179.269 163.447 178.257 C 152.308 175.691 141.134 176.609 129.881 176.609 C 115.662 176.609 101.631 176.06 87.392 176.62 C 83.299 176.781 77.195 177.119 73.998 180.185 C 72.345 181.771 71.703 184.082 70.712 186.081 C 69.978 187.564 68.255 192.943 68.155 196.674" style="fill: rgb(207, 207, 207);"/>
      </g>
    </a>
    <a id="a-4" xlink:href="mex">
      <g id="g-2">
        <path id="path-4" d="M 91.112 255.579 C 92.216 258.836 96.725 265.738 98.535 268.653 C 99.523 270.245 100.522 273.03 102.649 273.498 C 107.079 274.471 99.214 260.768 105.141 264.373 C 114.52 270.077 113.506 282.876 120.865 289.588 C 123.122 291.647 126.851 290.655 129.636 290.919 C 133.093 291.247 136.661 292.792 140.119 293.485 C 145.007 294.465 153.459 297.557 156.365 301.689 C 158.379 304.552 159.51 307.776 162.558 309.753 C 163.338 310.258 164.987 311.643 165.912 310.791 C 167.014 309.775 166.94 307.189 167.097 305.825 C 167.519 302.157 170.337 293.822 165.332 291.97 C 163.106 291.147 158.186 293.935 157.061 292.395 C 154.38 288.729 157.581 284.65 158.145 280.961 C 158.328 279.77 159.244 277.295 157.746 276.576 C 151.51 273.585 146.56 287.287 140.656 282.388 C 136.031 278.551 138.484 270.398 134.542 265.672 C 131.906 262.511 127.08 261.32 123.354 259.897 C 113.807 256.25 94.954 252.36 90.977 254.365" style="fill: rgb(207, 207, 207);"/>
      </g>
    </a>
    <a id="a-5" xlink:href="/bra">
      <g id="g-2">
        <path id="path-5" d="M163.734,329.877 C161.563,331.593,162.91,339.687,161.559,342.653 C158.12,350.201,151.19,358.32,152.474,367.083 C153.531,374.289,159.653,377.571,164.338,381.855 C169.802,386.852,177.703,398.225,178.632,405.62 C181.698,430.039,170.709,452.682,170.709,476.648 C170.709,487.083,171.609,511.551,188.367,508.463 C189.992,508.163,190.25,506.214,189.64,504.924 C187.745,500.919,183.536,498.819,183.33,493.788 C182.98,485.229,188.849,481.976,191.295,474.725 C192.731,470.467,190.107,467.472,193.815,463.54 C198.692,458.369,206.922,456.869,211.654,451.98 C213.634,449.935,214.109,446.677,215.654,444.265 C217.675,441.11,220.742,438.801,222.532,435.498 C225.76,429.544,227.602,423.105,231.08,417.201 C234.461,411.461,240.331,412.777,244.047,408.376 C248.983,402.532,249.427,393.605,251.912,386.597 C254.286,379.902,265.066,369.56,261.845,361.962 C260.321,358.368,246.028,357.186,241.812,354.734 C236.993,351.932,229.861,346.886,226.097,342.822 C223.093,339.58,221.125,335.343,217.703,332.52 C214.724,330.063,210.486,331.023,207.348,328.924 C202.252,325.516,200.463,323.139,193.941,322.474 C185.99,321.663,175.934,318.247,168.528,322.304 C166.045,323.663,159.432,333.245,163.465,334.974" style="fill: rgb(108, 242, 135);"/>
      </g>
    </a>
    <a id="a-6" transform="matrix(1, 0, 0, 1, 2.494802, 19.334719)" xlink:href="/zaf">
      <g id="g-2">
        <path id="path-6" d="M 347.688 289.839 C 347.688 289.839 347.973 287.843 347.973 287.843 C 347.943 294.362 343.445 298.494 339.533 303.047 C 331.031 312.941 315.574 327.991 319.131 342.408 C 319.904 345.539 323.083 346.666 324.56 349.362 C 327.465 354.666 325.024 365.271 331.28 368.501 C 351.02 378.694 376.406 358.58 388.695 384.593 C 394.11 396.055 390.059 407.51 389.624 419.243 C 389.066 434.278 392.716 451.236 399.718 464.657 C 401.652 468.364 400.499 473.012 401.982 476.854 C 403.148 479.876 412.175 482.193 415.193 482.021 C 428.363 481.269 426.419 465.873 430.567 457.349 C 432.003 454.399 435.005 453.504 436.696 450.875 C 439.995 445.744 439.479 439.612 442.234 434.362 C 445.003 429.083 449.208 426.101 451.066 420.09 C 453.081 413.573 450.68 405.795 451.613 399.065 C 452.261 394.392 455.279 390.192 457.818 386.368 C 463.03 378.518 469.739 371.598 475.605 364.216 C 477.887 361.344 481.606 357.262 480.375 353.222 C 478.484 347.013 467.862 350.647 463.282 346.56 C 455.485 339.605 450.094 329.403 446.939 319.6 C 445.798 316.053 445.667 311.999 444.113 308.603 C 442.321 304.686 434.823 301.881 436.092 297.539 C 431.039 295.454 416.712 293.774 411.418 295.224 C 407.383 296.33 401.399 296.309 397.087 295.538 C 389.457 294.174 391.877 289.014 386.397 284.454 C 378.363 277.767 365.06 281.945 356.425 285.647 C 351.375 287.811 348.572 287.144 345.977 292.691 C 345.977 292.691 347.403 293.547 347.403 293.547" style="fill: rgb(207, 207, 207);"/>
      </g>
    </a>
    <a id="a-7" xlink:href="/aus">
      <g id="g-2">
        <path id="path-7" d="M 672.046 450.674 C 673.748 452.386 674.008 452.434 671.671 454.041 C 665.258 458.45 652.894 458.474 651.771 468.076 C 651.258 472.467 657.007 478.822 658.075 483.434 C 658.824 486.669 656.611 491.39 658.705 494.201 C 660.955 497.22 666.949 495.926 669.763 494.71 C 676.734 491.698 687.936 483.845 696.113 487.084 C 709.565 492.413 717.774 511.493 734.466 508.391 C 736.233 508.063 740.781 507.349 741.591 505.578 C 743.105 502.268 741.892 496.791 742.497 493.143 C 743.528 486.928 752.15 477.225 750.373 471.284 C 748.021 463.42 737.473 456.674 733.312 449.284 C 732.459 445.858 729.766 443.094 728.834 439.583 L 728.254 437.789 L 727.227 435.031 L 726.9 433.975 L 726.596 433.239 L 726.251 432.636 L 725.809 432.153 L 725.103 431.747 C 713.276 427.324 721.32 444.412 713.959 446.405 C 710.361 447.379 707.677 438.312 707.566 435.851 L 707.939 435.851 C 707.8 427.244 695.123 434.835 692.277 437.566 L 691.455 438.851 L 690.473 439.224 C 676.478 440.161 671.708 447.691 672.208 449.084" style="fill: rgb(207, 207, 207);"/>
      </g>
    </a>
    <a id="a-8" xlink:href="/grl">
      <g id="g-2">
        <path id="path-8" d="M 231.646 81.002 L 235.154 83.675 C 243.815 81.058 246.897 89.286 252.461 94.213 C 257.523 98.695 263.688 102.425 265.021 109.685 C 265.554 112.586 264.052 115.312 263.762 118.149 C 263.307 122.591 263.781 126.679 264.578 131.044 C 265.646 136.89 269.646 146.608 276.742 146.729 C 279.299 146.773 281.899 144.149 283.309 142.21 C 287.091 137.011 289.004 131.241 293.752 126.625 C 297.409 123.07 302.272 120.101 307.016 118.262 C 311.139 116.664 315.921 116.355 319.177 113.055 C 323.183 108.995 322.15 105.103 322.9 99.985 C 323.492 95.943 324.941 91.727 326.47 87.947 C 327.837 84.564 330.95 80.38 331.196 76.736 C 331.396 73.759 327.678 73.074 328.178 69.661 C 328.844 65.117 333.594 62.087 336.489 58.986 C 337.213 58.211 340.103 56.241 339.549 54.975 C 339.057 53.851 336.561 54.208 335.602 54.247 C 332.089 54.389 328.469 54.85 325.33 52.83 C 321.61 50.437 318.458 47.038 314.105 45.848 C 309.028 44.459 303.224 46.153 298.023 46.149 C 282.968 46.138 266.774 48.755 252.66 54.677 C 250.254 55.686 248.251 57.563 245.921 58.729 C 243.189 60.097 240.328 60.828 237.765 62.527 C 234.847 64.461 228.873 71.899 229.482 75.709" style="fill: rgb(229, 229, 229);"/>
        <path style="stroke: rgb(0, 0, 0); paint-order: stroke markers; stroke-width: 0px; fill: rgb(207, 207, 207);" d="M 374.177 258.386 C 370.154 258.386 368.394 255.664 362.958 258.242 C 359.356 259.951 355.12 254.078 352.319 256.88 C 351.521 257.677 350.985 266.035 352.203 267.252 C 359.548 274.597 382.652 275.121 382.652 263.064 C 382.554 262.007 379.053 259.55 374.177 258.386 Z"/>
      </g>
    </a>
    <a id="a-9" xlink:href="/rus">
      <g id="g-2">
        <path id="path-9" d="M 427.869 172.785 C 429.218 175.667 437.198 193.322 442.114 195.613 C 445.817 197.339 449.8 199.633 452.085 203.431 C 454.698 207.774 451.799 212.404 451.887 216.97 C 451.968 221.212 460.674 226.542 464.495 226.513 C 467.037 226.494 468.77 224.185 469.968 222.249 C 471.661 219.511 473.146 217.143 472.971 213.834 C 472.75 209.672 468.461 204.348 474.516 201.265 C 479.852 198.548 483.175 201.79 488.175 202.724 C 491.304 203.309 495.282 202.781 498.255 201.757 C 503.536 199.939 504.382 192.275 508.916 188.953 C 515.407 184.199 521.911 187.685 529.021 187.433 C 533.137 187.287 537.95 185.886 541.978 187.14 C 545.881 188.355 551.874 194.709 554.668 197.745 C 556.33 199.55 557.459 201.859 560.089 202.416 C 562.251 202.874 565.832 203.044 567.835 202.028 C 571.055 200.395 574.262 196.78 578.344 198.417 C 580.303 199.203 580.074 202.748 582.009 203.246 C 583.353 203.593 584.693 200.948 585.47 200.143 C 586.694 198.875 588.998 198.711 590.658 198.954 C 595.867 199.718 597.851 203.084 602.251 205.212 C 604.966 206.526 613.455 207.035 616.408 206.315 C 620.176 205.396 625.848 204.005 628.9 201.57 C 632.853 198.414 637.311 189.994 643.65 191.777 C 652.535 194.275 660.539 200.835 662.037 210.344 C 662.517 213.397 661.299 216.449 661.738 219.536 C 662.134 222.319 665.71 227.073 668.926 225.813 C 672.356 224.469 674.647 220.169 676.212 217.1 C 679.538 210.58 684.673 203.83 682.648 195.932 C 681.986 193.349 680.928 190.021 679.541 187.745 C 678.44 185.937 676.432 184.54 677.232 182.118 C 678.313 178.847 683.227 176.414 686.112 175.218 C 693.916 171.985 702.064 170.543 709.818 167.475 C 715.135 165.372 723.672 155.009 730.424 158.904 C 733.2 160.505 732.142 164.114 730.864 166.265 C 726.999 172.768 721.552 176.993 718.918 184.357 C 718.1 186.642 717.092 191.888 719.808 193.352 C 721.635 194.336 724.3 193.443 726.13 192.891 C 734.389 190.4 734.133 182.308 736.014 175.585 C 736.765 172.903 737.717 169.115 740.455 167.792 C 746.769 164.74 754.319 166.62 760.43 162.454 C 765.61 158.922 766.898 150.564 772.618 149.061 C 777.753 147.711 782.892 150.207 787.826 149.068 C 789.412 148.702 792.143 147.672 792.644 145.957 C 793.648 142.516 788.34 139.338 785.897 138.019 C 783.41 136.677 781.945 134.109 779.317 132.977 C 774.431 130.872 768.893 130.878 763.799 128.774 C 752.667 124.176 740.168 129.141 728.457 126.414 C 716.206 123.561 705.286 112.335 692.472 111.977 C 687.745 111.844 682.206 111.326 677.673 112.906 C 672.393 114.746 667.644 119.315 661.631 117.929 C 655.018 116.404 652.929 110.336 646.278 108.931 C 640.109 107.629 634.497 107.801 628.295 108.601 C 625.717 108.933 621.058 109.809 618.793 108.096 C 615.657 105.725 623.414 99.543 620.794 95.742 C 617.162 90.475 609.318 93.013 604.366 89.978 C 599.787 87.17 600.093 78.815 597.681 74.489 C 595.611 70.774 589.391 69.22 585.532 68.359 C 583.59 67.926 580.337 66.163 578.414 67.352 C 576.583 68.483 577.936 72.268 578.415 73.817 C 580.174 79.511 584.913 81.251 588.902 85.119 C 590.561 86.727 591.13 88.325 589.003 89.76 C 581.976 94.501 573.213 92.216 565.894 95.665 C 558.169 99.306 552.97 107.018 545.667 110.984 C 540.141 113.986 531.494 112.133 529.129 119.424 C 525.57 117.655 528.604 109.516 526.104 109.476 C 516.898 109.325 516.215 120.977 509.281 123.618 C 506.52 124.67 503.343 123.322 500.642 124.3 C 497.674 125.374 495.682 128.319 492.833 129.722 C 487.333 132.432 481.019 133.158 474.999 134.206 C 471.033 134.897 466.991 130.696 463.73 132.026 C 457.354 134.628 457.654 146.881 449.774 147.749 C 447.95 147.951 442.818 143.75 442.591 141.947 C 442.076 137.849 453.158 139.107 450.371 132.752 C 448.196 127.795 435.612 125.9 432.296 129.628 C 427.175 135.387 434.1 144.537 434.52 150.869 C 435.027 158.514 428.013 168.161 427.698 171.394" style="fill: rgb(229, 229, 229);"/>
      </g>
    </a>
    <a id="a-10" transform="matrix(1, 0, 0, 1, -6.860707, -1.247401)" xlink:href="/swe">
      <g id="g-2">
        <path id="path-10" d="M 392.327 120.014 C 389.343 122.247 386.29 125.692 383.407 128.346 C 377.489 133.79 360.349 156.978 361.187 164.893 C 363.086 182.842 378.632 162.723 380.31 179.093 C 393.955 197.125 397.861 170.932 398.879 162.467 C 399.164 160.095 399.897 155.922 402.319 154.745 C 406.57 152.681 405.341 163.653 406.496 165.386 C 408.361 168.184 412.691 167.653 415.508 167.108 C 433.635 163.604 424.466 142.066 426.11 130.966 C 426.901 125.616 433.659 121.521 432.767 115.992 C 430.05 99.14 401.071 111.581 392.787 119.632" style="fill: rgb(207, 207, 207);"/>
      </g>
    </a>
    <a id="a-11" xlink:href="/ukr">
      <g id="g-2">
        <path id="path-11" d="M493.805,209.613 C492.451,204.932,488.849,205.83,485.616,206.707 C480.247,208.165,471.922,213.967,474.588,222.35 C476.251,227.579,481.104,223.505,483.258,227.911 C485.441,232.377,484.845,237.089,488.04,241.569 C488.624,242.387,489.526,244.551,490.569,244.399 C491.667,244.24,492.002,241.713,492.35,240.699 C493.532,237.253,496.733,230.798,500.524,233.404 C502.66,234.872,503.647,238.669,504.593,241.236 C506.529,246.49,510.562,256.203,514.996,258.628 C520.693,261.746,522.043,253.667,526.286,251.365 C532.243,248.133,539.518,247.366,544.284,241.063 C546.648,237.937,546.548,233.106,549.148,229.844 C551.597,226.772,557.453,223.114,557.818,218.375 C558.186,213.608,553.106,211.766,550.223,211.36 C544.733,210.589,539.038,209.169,534.233,205.556 C527.252,200.305,522.44,192.592,513.551,193.823 C511.989,194.039,509.974,195.053,508.751,196.299 C507.108,197.972,506.953,200.889,505.737,202.928 C502.187,208.881,494.914,212.41,491.166,205.42" style="fill: rgb(207, 207, 207);"/>
      </g>
    </a>
    <a id="a-12" transform="matrix(1, 0, 0, 1, -10.261667, 0.458813)" xlink:href="/fr">
      <g id="g-2">
        <path id="path-12" d="M 352.531 206.758 C 349.26 205.656 345.063 200.296 338.869 200.029 C 335.477 199.883 334.368 206.968 331.79 208.708 C 327.858 211.362 324.023 209.753 319.875 210.943 C 306.546 214.768 321.982 228.327 323.629 234.323 C 324.801 238.586 321.177 245.342 324.832 248.732 C 327.909 251.586 335.4 255.25 339.519 253.762 C 341.233 253.143 341.902 250.455 343.306 249.299 C 344.887 247.997 348.834 248.129 350.776 248.276 C 353.526 248.485 363.291 250.634 364.852 247.781 C 368.827 240.514 357.236 235.151 356.828 228.648 C 356.498 223.395 367.374 221.173 364.892 214.677 C 362.663 208.844 352.812 214.806 352.761 206.916" style="fill: rgb(207, 207, 207);"/>
      </g>
    </a>
    <a id="a-13" transform="matrix(1, 0, 0, 1, -9.447887, -2.037524)" xlink:href="/sp">
      <g id="g-2">
        <path id="path-13" d="M311.304,256.532 C311.304,256.532,311.653,255.108,311.653,255.108 C304.51,255.108,297.578,256.176,290.442,256.176 C287.586,256.176,284.104,256.169,283.333,259.638 C282.257,264.477,287.854,267.622,287.498,272.775 C287.054,279.224,281.522,288.619,289.023,293.229 C291.767,294.915,294.629,293.589,297.551,293.578 C300.895,293.565,304.602,294.81,307.897,294.083 C316.013,292.291,319.329,282.264,324.714,276.829 C327.663,273.852,335.677,271.011,336.556,266.619 C337.364,262.576,332.628,260.378,329.78,259.143 C323.112,256.252,312.156,252.389,305.01,256.532" style="fill: rgb(207, 207, 207);"/>
      </g>
    </a>
    <a id="a-14" xlink:href="/ind">
      <g id="g-2">
        <path id="path-14" d="M 528.773 309.84 C 528.773 309.84 530.228 311.597 530.228 311.597 C 540.115 321.922 535.581 326.576 538.818 339.354 C 539.494 342.026 542.117 350.569 545.992 349.261 C 549.054 348.227 553.739 329.154 555.715 325.088 C 557.05 322.342 558.495 317.769 561.289 316.211 C 565.115 314.077 571.948 313.558 574.059 309.161 C 579.8 297.206 557.605 295.988 554.048 290.366 C 551.239 285.926 553.247 278.409 548.756 274.864 C 537.197 265.739 527.739 288.267 525.808 296.968 C 525.097 300.168 523.13 306.388 526.885 308.104" style="fill: rgb(207, 207, 207);"/>
      </g>
    </a>
    <a id="a-15" xlink:href="/jap">
      <g id="g-2">
        <path id="path-15" d="M 688.982 204.489 C 688.982 204.489 688.432 210.685 688.432 210.685 C 691.007 224.926 692.016 234.493 681.226 246.152 C 679.575 247.936 676.799 248.578 674.762 249.853 C 670.189 252.715 665.713 256.275 662.401 260.551 C 660.45 263.07 659.513 268.148 663.445 269.634 C 664.931 270.196 667.288 270.451 668.735 269.677 C 671.751 268.063 673.73 265.024 676.82 263.378 C 681.44 260.916 688.907 261.216 691.223 255.673 C 693.097 251.186 690.222 244.973 692.359 240.9 C 694.182 237.426 700.841 236.605 701.172 232.193 C 701.403 229.099 692.71 230.629 692.609 226.118 C 692.522 222.22 696.737 218.672 698.322 215.356 C 700.897 209.967 697.7 199.611 691.319 198.307 C 690.111 201.455 686.141 198.135 687.935 201.328" style="fill: rgb(207, 207, 207);"/>
      </g>
    </a>
    <a id="a-16" xlink:href="/can">
      <g id="g-2">
        <path id="path-16" d="M 66.621 103.631 C 63.537 102.366 62.555 98.841 59.097 98.119 C 54.33 97.124 49.796 99.745 45.085 99.495 C 39.284 99.186 35.171 95.106 28.688 96.074 C 17.163 97.794 9.634 115.73 11.365 124.627 C 12.749 131.74 22.086 136.225 25.123 142.07 C 27.587 146.812 14.372 155.227 19.153 158.023 C 22.608 160.044 29.127 154.165 31.859 152.629 C 41.387 147.27 51.284 139.83 63.729 143.152 C 81.793 147.974 92.406 164.317 110.457 168.562 C 115.639 169.78 122.304 168.513 127.678 168.551 C 133.823 168.594 140.077 170.228 146.284 170.514 C 156.495 170.986 164.491 169.228 174.864 171.83 C 184.284 174.193 198.131 186.557 205.636 186.518 C 219.599 186.446 223.639 174.824 235.96 172.696 C 244.112 171.289 244.187 183.818 251.554 180.867 L 252.308 180.201 C 253.47 172.358 265.377 171.023 266.192 163.669 C 267.772 149.403 249.838 148.44 240.99 141.796 C 235.764 137.87 232.796 130.784 225.913 128.504 C 220.4 126.678 210.772 129.879 209.841 135.619 C 209.237 139.342 212.149 142.693 211.509 146.569 C 211.291 147.883 209.015 155.009 207.373 155.111 C 203.785 155.334 178.019 144.705 177.807 141.331 C 177.113 130.312 194.341 125.054 200.33 118.279 L 200.707 118.279 L 201.46 117.281 C 203.336 115.269 203.984 111.667 207.207 110.901 C 213.417 109.426 224.003 120.734 227.969 124.068 C 231.188 126.773 240.469 128.375 242.842 123.751 C 254.212 101.595 207.634 101.877 206.122 85.038 C 205.805 81.511 209.338 78.482 211.227 75.69 C 214.061 71.502 215.468 66.78 219.788 63.398 C 225.18 59.176 233.823 57.474 238.311 52.527 C 242.872 47.498 242.901 39.118 235.42 36.788 C 224.959 33.531 212.453 39.481 202.875 42.36 C 183.894 48.066 165.564 55.409 146.75 61.545 C 134.556 65.522 122.871 66.759 112.736 74.614 C 104.762 80.794 107.506 93.207 98.466 99.497 C 86.882 107.557 83.726 104.841 71.522 104.011" style="fill: rgb(207, 207, 207);"/>
      </g>
    </a>
    <a id="a-17" xlink:href="/ch">
      <g id="g-2">
        <path id="path-17" d="M 554.795 234.8 C 550.909 239.039 540.839 246.579 540.256 253.337 C 539.744 259.283 549.165 258.198 551.381 261.806 C 556.877 270.757 556.239 296.749 572.639 287.371 C 575.513 285.727 577.753 282.978 580.454 281.016 L 580.454 280.574 C 589.964 278.093 587.853 292.139 593.319 297.646 C 597.922 302.282 623.602 301.904 628.604 296.829 C 639.292 285.984 626.605 264.983 635.193 254.641 C 643.292 244.89 663.105 241.552 660.479 222.908 C 660.302 221.653 642.614 201.398 641.221 200.954 C 634.385 198.777 630.407 208.629 624.039 209.836 C 618.318 210.921 609.764 214.153 604.201 213.365 C 590.947 211.488 581.366 201.814 569.524 213.488 C 566.76 217.81 562.46 216.937 560.642 223.84" style="fill: rgb(229, 229, 229);"/>
      </g>
    </a>
    <a id="a-18" transform="matrix(1, 0, 0, 1, 11.850311, -8.108108)" xlink:href="/gb">
      <g id="g-2">
        <path id="path-18" d="M312.113,151.181 C311.051,156.797,314.195,162.646,311.234,168.066 C309.832,170.632,304.7,170.212,302.425,171.155 C297.078,173.371,296.719,181.952,298.719,187.095 C301.413,194.025,306.528,189.823,310.833,187.836 C312.017,187.289,314.433,185.837,315.618,186.889 C318.36,189.323,312.598,197.581,318.191,198.288 C320.43,198.571,321.579,195.586,323.667,195.417 C328.749,195.005,336.262,198.79,339.257,191.821 C340.418,189.118,338.443,187.256,338.117,184.762 C337.82,182.496,339.744,180.093,338.674,178.004 C335.994,172.773,329.114,170.171,326.351,164.422 C324.294,160.141,333.39,150.632,327.193,150.26 C327.193,150.26,327.193,150.567,327.193,150.567 C320.78,151.28,326.603,139.45,318.209,140.5 C311.901,141.289,311.584,152.859,311.584,158.236" style="fill: rgb(207, 207, 207);"/>
      </g>
    </a>
  </g>
</svg>